# xmcd CD database file
#
# Track frame offsets:
#	150
#	900
#	1650
#	2400
#	3150
#	3900
#	4650
#	5400
#	6150
#	6900
#	7650
#	8400
#	9150
#	9900
#	10650
#	311537
#
# Disc length: 4440 seconds
#
# Revision: 2
# Processed by: cddbd v1.5PL3 Copyright (c) Steve Scherf et al.
# Submitted via: CDex 1.50
#
DISCID=67115610
DTITLE=Sarah Brightman - Harem
DYEAR=2003
DGENRE=New Age
TTITLE0=Harem
TTITLE1=What A Wonderful World
TTITLE2=It's A Beautiful Day
TTITLE3=What You Never Know
TTITLE4=The Journey Home
TTITLE5=Free
TTITLE6=Mysterious Days
TTITLE7=The War Is Over
TTITLE8=Misere Mei
TTITLE9=Beautiful
TTITLE10=Arabian Nights
TTITLE11=Stranger In Paradise
TTITLE12=Until The End Of Time
TTITLE13=Tout Ce Que Je Sais
TTITLE14=Gueri De Toi
TTITLE15=Unknown 16th Track
EXTD=YEAR: 2003
EXTT0=
EXTT1=
EXTT2=
EXTT3=
EXTT4=
EXTT5=
EXTT6=
EXTT7=
EXTT8=
EXTT9=
EXTT10=
EXTT11=
EXTT12=
EXTT13=
EXTT14=
EXTT15=
PLAYORDER=
